<?xml version="1.0" encoding="UTF-8" standalone="no"?>
<!-- Created with Inkscape (http://www.inkscape.org/) -->

<svg
   width="512"
   height="512"
   viewBox="0 0 512 512"
   version="1.1"
   id="svg1"
   inkscape:version="1.3.2 (091e20ef0f, 2023-11-25)"
   sodipodi:docname="hu.irl.keystep37-settings.svg"
   xmlns:inkscape="http://www.inkscape.org/namespaces/inkscape"
   xmlns:sodipodi="http://sodipodi.sourceforge.net/DTD/sodipodi-0.dtd"
   xmlns:xlink="http://www.w3.org/1999/xlink"
   xmlns="http://www.w3.org/2000/svg"
   xmlns:svg="http://www.w3.org/2000/svg">
  <sodipodi:namedview
     id="namedview1"
     pagecolor="#505050"
     bordercolor="#eeeeee"
     borderopacity="1"
     inkscape:showpageshadow="0"
     inkscape:pageopacity="0"
     inkscape:pagecheckerboard="0"
     inkscape:deskcolor="#505050"
     inkscape:document-units="px"
     inkscape:zoom="0.80516262"
     inkscape:cx="149.03822"
     inkscape:cy="302.42338"
     inkscape:window-width="1440"
     inkscape:window-height="831"
     inkscape:window-x="0"
     inkscape:window-y="0"
     inkscape:window-maximized="1"
     inkscape:current-layer="layer1" />
  <defs
     id="defs1">
    <linearGradient
       id="swatch7"
       inkscape:swatch="solid">
      <stop
         style="stop-color:#000000;stop-opacity:1;"
         offset="0"
         id="stop7" />
    </linearGradient>
    <linearGradient
       id="swatch9"
       inkscape:swatch="solid">
      <stop
         style="stop-color:#000000;stop-opacity:1;"
         offset="0"
         id="stop9" />
    </linearGradient>
    <pattern
       inkscape:collect="always"
       xlink:href="#pattern6-7"
       preserveAspectRatio="xMidYMid"
       id="pattern9"
       patternTransform="translate(190,350)" />
    <pattern
       patternUnits="userSpaceOnUse"
       width="29"
       height="20"
       patternTransform="translate(190,350)"
       preserveAspectRatio="xMidYMid"
       style="fill:#000000"
       id="pattern6-7"
       inkscape:label=""
       inkscape:collect="always"
       inkscape:isstock="true">
      <path
         style="fill:none;stroke:#000000;stroke-width:10;stroke-linecap:butt;stroke-dasharray:none;paint-order:stroke markers fill;stop-color:#000000"
         d="M 0,5 C 19,5 10,15 29,15"
         id="path4-2"
         sodipodi:nodetypes="cc" />
    </pattern>
  </defs>
  <g
     inkscape:label="Layer 1"
     inkscape:groupmode="layer"
     id="layer1">
    <path
       style="mix-blend-mode:normal;fill:#1a1a1a;stroke:#ffffff;stroke-width:18.52000046;stroke-dasharray:none;stroke-opacity:1;paint-order:normal;fill-opacity:1;stroke-linejoin:bevel;stroke-linecap:butt"
       d="M 61.508728,498.04434 111.30298,32.528908 436.61758,27.836798 462.33974,499.91604"
       id="path2"
       sodipodi:nodetypes="cccc" />
    <path
       style="font-size:192px;font-family:Supply;-inkscape-font-specification:Supply;fill:#ffffff;stroke-width:7.559;paint-order:markers stroke fill"
       d="m 255.76795,106.24153 h -22.656 l -35.328,57.6 h -7.296 v -57.6 h -19.2 v 134.4 h 19.2 v -57.6 h 7.296 l 35.328,57.6 h 22.656 l -41.28,-67.2 z m 30.72007,91.008 v 7.68 c 0,19.776 15.936,35.712 35.712,35.712 h 12.864 c 20.352,0 35.904,-14.592 35.904,-33.792 0,-40.512 -63.36,-48.384 -63.36,-68.736 0,-7.872 6.144,-12.672 16.512,-12.672 h 9.024 c 9.216,0 16.704,7.296 16.704,16.512 v 5.76 h 19.2 v -5.76 c 0,-19.776 -16.128,-35.712 -35.904,-35.712 h -9.024 c -20.928,0 -35.712,13.056 -35.712,31.872 0,36.48 63.36,42.24 63.36,68.736 0,8.448 -6.912,14.592 -16.704,14.592 h -12.864 c -9.024,0 -16.512,-7.488 -16.512,-16.512 v -7.68 z"
       id="text1"
       aria-label="KS" />
    <rect
       style="fill:#ffffff;fill-opacity:1;stroke:none;stroke-width:6.46178;stroke-opacity:1;paint-order:markers stroke fill"
       id="rect11"
       width="211.93845"
       height="149.3663"
       x="163.93719"
       y="281.6153"
       rx="3.2164307"
       ry="3.2454591" />
    <path
       d="m 255.68001,332.87754 v -7.68 c 0,-19.2 -15.36,-34.56 -34.56,-34.56 h -15.36 c -19.008,0 -34.56,15.36 -34.56,34.56 v 6.72 h 19.2 v -6.72 c 0,-8.448 6.912,-15.36 15.36,-15.36 h 15.36 c 8.64,0 15.36,6.72 15.36,15.36 v 7.68 c 0,8.64 -6.72,15.36 -15.36,15.36 h -13.44 v 19.2 h 13.44 c 8.64,0 15.36,6.72 15.36,15.36 v 7.68 c 0,8.64 -6.72,15.36 -15.36,15.36 h -15.36 c -8.448,0 -15.36,-6.912 -15.36,-15.36 v -6.72 h -19.2 v 6.72 c 0,19.2 15.552,34.56 34.56,34.56 h 15.36 c 19.2,0 34.56,-15.36 34.56,-34.56 v -7.68 c 0,-9.792 -4.032,-18.624 -10.56,-24.96 6.528,-6.336 10.56,-15.168 10.56,-24.96 z m 57.60007,92.16 v -29.76 l 57.6,-59.52 v -45.12 h -84.48 v 40.32 h 19.2 v -21.12 h 46.08 v 18.24 l -57.6,59.52 v 37.44 z"
       id="text11"
       style="font-size:192px;font-family:Supply;-inkscape-font-specification:Supply;fill:#000003;stroke-width:7.559;paint-order:markers stroke fill"
       aria-label="37" />
  </g>
</svg>
