<?xml version="1.0" encoding="UTF-8" standalone="no"?>
<!-- Created with Inkscape (http://www.inkscape.org/) -->

<svg
   width="512"
   height="512"
   viewBox="0 0 512 512"
   version="1.1"
   id="svg1"
   inkscape:version="1.3.2 (091e20ef0f, 2023-11-25)"
   sodipodi:docname="hu.irl.sysex-controls.svg"
   xmlns:inkscape="http://www.inkscape.org/namespaces/inkscape"
   xmlns:sodipodi="http://sodipodi.sourceforge.net/DTD/sodipodi-0.dtd"
   xmlns:xlink="http://www.w3.org/1999/xlink"
   xmlns="http://www.w3.org/2000/svg"
   xmlns:svg="http://www.w3.org/2000/svg">
  <sodipodi:namedview
     id="namedview1"
     pagecolor="#505050"
     bordercolor="#eeeeee"
     borderopacity="1"
     inkscape:showpageshadow="0"
     inkscape:pageopacity="0"
     inkscape:pagecheckerboard="0"
     inkscape:deskcolor="#505050"
     inkscape:document-units="px"
     inkscape:zoom="1.2491422"
     inkscape:cx="327.02443"
     inkscape:cy="242.16619"
     inkscape:window-width="1440"
     inkscape:window-height="831"
     inkscape:window-x="0"
     inkscape:window-y="0"
     inkscape:window-maximized="1"
     inkscape:current-layer="layer1" />
  <defs
     id="defs1">
    <linearGradient
       id="swatch7"
       inkscape:swatch="solid">
      <stop
         style="stop-color:#000000;stop-opacity:1;"
         offset="0"
         id="stop7" />
    </linearGradient>
    <linearGradient
       id="swatch9"
       inkscape:swatch="solid">
      <stop
         style="stop-color:#000000;stop-opacity:1;"
         offset="0"
         id="stop9" />
    </linearGradient>
    <pattern
       inkscape:collect="always"
       xlink:href="#pattern6-7"
       preserveAspectRatio="xMidYMid"
       id="pattern9"
       patternTransform="translate(190,350)" />
    <pattern
       patternUnits="userSpaceOnUse"
       width="29"
       height="20"
       patternTransform="translate(190,350)"
       preserveAspectRatio="xMidYMid"
       style="fill:#000000"
       id="pattern6-7"
       inkscape:label=""
       inkscape:collect="always"
       inkscape:isstock="true">
      <path
         style="fill:none;stroke:#000000;stroke-width:10;stroke-linecap:butt;stroke-dasharray:none;paint-order:stroke markers fill;stop-color:#000000"
         d="M 0,5 C 19,5 10,15 29,15"
         id="path4-2"
         sodipodi:nodetypes="cc" />
    </pattern>
  </defs>
  <g
     inkscape:label="Layer 1"
     inkscape:groupmode="layer"
     id="layer1"
     style="display:inline">
    <path
       style="mix-blend-mode:normal;fill:#1a1a1a;fill-opacity:1;stroke:#ffffff;stroke-width:18.52;stroke-linecap:butt;stroke-linejoin:bevel;stroke-dasharray:none;stroke-opacity:1;paint-order:normal"
       d="M 61.508728,498.04434 111.30298,32.528908 436.61758,27.836798 462.33974,499.91604"
       id="path2"
       sodipodi:nodetypes="cccc" />
    <path
       style="font-size:192px;font-family:Supply;-inkscape-font-specification:Supply;fill:#ffffff;stroke:#ffffff;stroke-width:0;stroke-linejoin:bevel"
       d="m 123.53503,200.052 v 7.22129 c 0,18.59482 14.98418,33.579 33.57901,33.579 h 12.09567 c 19.13642,0 33.75954,-13.72045 33.75954,-31.77368 0,-38.09232 -59.57567,-45.49414 -59.57567,-64.63057 0,-7.40182 5.77704,-11.91513 15.52578,-11.91513 h 8.48502 c 8.66555,0 15.70631,6.86023 15.70631,15.52578 v 5.41596 h 18.05323 v -5.41596 c 0,-18.59483 -15.16471,-33.57901 -33.75954,-33.57901 h -8.48502 c -19.67802,0 -33.57901,12.2762 -33.57901,29.96836 0,34.30114 59.57567,39.71711 59.57567,64.63057 0,7.94342 -6.49917,13.72046 -15.70631,13.72046 h -12.09567 c -8.48502,0 -15.52578,-7.04077 -15.52578,-15.52578 V 200.052 Z m 169.70045,-85.57232 v 35.02327 l -21.66388,28.34357 h -0.36107 l -21.30281,-26.53825 v -36.82859 h -18.05323 v 43.32776 l 30.6905,38.09231 v 44.95254 h 18.05322 v -44.95254 l 30.6905,-40.2587 v -41.16137 z m 46.93846,85.57232 v 7.22129 c 0,18.59482 14.98418,33.579 33.57901,33.579 h 12.09566 c 19.13643,0 33.75955,-13.72045 33.75955,-31.77368 0,-38.09232 -59.57566,-45.49414 -59.57566,-64.63057 0,-7.40182 5.77703,-11.91513 15.52577,-11.91513 h 8.48502 c 8.66556,0 15.70632,6.86023 15.70632,15.52578 v 5.41596 h 18.05323 v -5.41596 c 0,-18.59483 -15.16472,-33.57901 -33.75955,-33.57901 h -8.48502 c -19.67802,0 -33.579,12.2762 -33.579,29.96836 0,34.30114 59.57565,39.71711 59.57565,64.63057 0,7.94342 -6.49915,13.72046 -15.70631,13.72046 h -12.09566 c -8.48502,0 -15.52578,-7.04077 -15.52578,-15.52578 V 200.052 Z"
       id="text1"
       aria-label="SYS" />
    <rect
       style="fill:#ffffff;fill-opacity:1;stroke:#ffffff;stroke-width:25.0412;stroke-linecap:butt;stroke-linejoin:bevel;stroke-dasharray:none"
       id="rect1"
       width="277.30508"
       height="175.54185"
       x="133.56288"
       y="274.5517"
       rx="3.6903381"
       ry="3.8836379" />
    <path
       d="m 256.24149,313.72752 v -19.2 h -84.48 v 19.2 54.336 60.864 h 84.48 v -19.2 h -65.28 v -41.664 h 57.6 v -19.2 h -57.6 v -35.136 z m 115.20007,-19.2 h -21.12 l -21.12,44.736 -21.12,-44.736 h -21.12 l 31.68,67.2 -31.68,67.2 h 21.12 l 21.12,-44.736 21.12,44.736 h 21.12 l -31.68,-67.2 z"
       id="text3"
       style="font-size:192px;font-family:Supply;-inkscape-font-specification:Supply;fill:#000000;fill-opacity:1;stroke:#ffffff;stroke-width:0;stroke-linejoin:bevel"
       aria-label="EX" />
  </g>
</svg>
